<?xml version="1.0" encoding="UTF-8"?>
<svg id="Calque_1" data-name="Calque 1" xmlns="http://www.w3.org/2000/svg" viewBox="0 0 285.86 285.87">
  <defs>
    <style>
      .cls-1 {
        fill: #00268f;
      }
    </style>
  </defs>
  <path class="cls-1" d="M246.38,0H35.65c-13.15,0-19.74,15.9-10.44,25.21l55.93,55.93c7.41,7.41,17.45,11.57,27.92,11.57h85c15.38,0,29.34,8.01,37.13,20.86,1.12,1.88,2.14,3.87,3,5.95,6.74,16.28,3.05,34.87-9.41,47.33l-40.93,40.93c-7.41,7.41-11.57,17.45-11.57,27.92v35.4c0,8.15,6.61,14.77,14.77,14.77h84.04c8.15,0,14.77-6.61,14.77-14.77V39.49c0-21.81-17.68-39.49-39.49-39.49h.01Z"/>
  <path class="cls-1" d="M178.32,125.67H48.42c-26.74,0-48.42,21.68-48.42,48.42v54.04c0,43.14,52.16,64.74,82.66,34.24l107.68-107.68c10.71-10.71,3.12-29.02-12.02-29.02h0Z"/>
</svg>