<?xml version="1.0" encoding="UTF-8"?>
<svg id="Calque_1" data-name="Calque 1" xmlns="http://www.w3.org/2000/svg" xmlns:xlink="http://www.w3.org/1999/xlink" viewBox="0 0 422 422">
  <defs>
    <style>
      .cls-1, .cls-2 {
        fill: none;
      }

      .cls-2 {
        stroke: #00268f;
        stroke-miterlimit: 10;
        stroke-width: 9px;
      }

      .cls-3 {
        clip-path: url(#clippath);
      }
    </style>
    <clipPath id="clippath">
      <rect class="cls-1" width="422" height="422"/>
    </clipPath>
  </defs>
  <g class="cls-3">
    <g>
      <path class="cls-1" d="M0,422V0h422v422H0ZM110.66,67.99V20.59c.01-4.09-2.52-6.99-6.4-7.21-3.33-.18-6.78,2.54-6.78,6.57l.02,48.94c0,3.92,3.58,6.41,6.71,6.32,3.61-.11,6.44-2.8,6.45-7.22ZM85.42,77.29l-34.11-41.93c-2.48-3.05-6.42-3.72-9.52-1.32-2.09,1.62-3.66,5.98-1.38,8.78l35.1,43.03c2.47,3.03,6.85,2.46,9.01.57,2.51-2.19,3.38-6.09.9-9.14ZM133.43,84.99l34.04-41.83c2.4-2.95.95-7.09-1.23-8.85-2.67-2.15-6.79-2.06-9.2.88l-34.04,41.72c-2.7,3.31-2.07,7.41.99,9.75,2.88,2.2,6.68,1.73,9.44-1.66ZM365.19,387.11l15.46-15.53c3.51-3.52,5.4-8.67,5.4-14l-.04-186.07c0-11.5-9.95-19.87-20.76-19.9l-22.41-.06c-9.1-.02-17.36-3.63-23.71-9.97l-26.38-26.35c-3.94-3.94-9.4-5.91-14.97-5.9l-47.04.07c-5.41,0-10.52,3.01-14.15,6.63l-28.09,27.97c-5.99,5.96-14.14,9.52-22.9,9.52h-99.56c-8.68,0-14.34,3.36-20.01,9.73-4.13,4.64-10.01,9.06-10.01,16.54v189.34c0,7.03,4.67,11.63,9.08,16.06,4.64,4.67,9.59,10.32,17.02,10.26l289.65-2.25c5.17-.04,9.96-2.6,13.44-6.09ZM136.82,122.8h-55.33s0,17.58,0,17.58h55.33s0-17.58,0-17.58Z"/>
      <path class="cls-2" d="M365.19,387.11c-3.48,3.49-8.27,6.05-13.44,6.09l-289.65,2.25c-7.43.06-12.38-5.59-17.02-10.26s-9.09-9.03-9.09-16.06v-189.34c0-7.47,5.89-11.9,10.02-16.54,5.68-6.37,11.34-9.74,20.01-9.74h99.56c8.76,0,16.91-3.55,22.9-9.51l28.09-27.97c3.63-3.61,8.75-6.62,14.15-6.63l47.04-.07c5.57,0,11.03,1.97,14.97,5.9l26.38,26.35c6.35,6.34,14.61,9.95,23.71,9.97l22.41.06c10.81.03,20.76,8.4,20.76,19.9l.04,186.07c0,5.32-1.89,10.47-5.4,14l-15.46,15.53ZM341.71,268.6c0-51.41-41.67-93.08-93.08-93.08s-93.08,41.67-93.08,93.08,41.67,93.08,93.08,93.08,93.08-41.67,93.08-93.08ZM125.85,215.78c0-18.21-14.76-32.97-32.97-32.97s-32.97,14.76-32.97,32.97,14.76,32.97,32.97,32.97,32.97-14.76,32.97-32.97Z"/>
      <rect class="cls-2" x="81.49" y="122.81" width="55.33" height="17.57"/>
      <path class="cls-2" d="M85.42,77.29c2.48,3.05,1.61,6.95-.9,9.14-2.15,1.88-6.54,2.45-9.01-.57l-35.1-43.03c-2.29-2.8-.72-7.16,1.38-8.78,3.1-2.4,7.04-1.72,9.52,1.32l34.11,41.93Z"/>
      <path class="cls-2" d="M133.43,84.99c-2.76,3.39-6.56,3.87-9.44,1.66-3.06-2.34-3.69-6.44-.99-9.75l34.04-41.72c2.4-2.94,6.53-3.03,9.2-.88,2.18,1.75,3.63,5.9,1.23,8.85l-34.04,41.83Z"/>
      <path class="cls-2" d="M110.66,67.99c0,4.42-2.84,7.11-6.45,7.22-3.13.09-6.71-2.4-6.71-6.32l-.02-48.94c0-4.02,3.46-6.75,6.78-6.57,3.87.21,6.41,3.12,6.41,7.21v47.4Z"/>
      <path class="cls-2" d="M341.71,268.6c0,51.41-41.67,93.08-93.08,93.08s-93.08-41.67-93.08-93.08,41.67-93.08,93.08-93.08,93.08,41.67,93.08,93.08ZM328.51,268.59c0-44.12-35.76-79.88-79.88-79.88s-79.88,35.76-79.88,79.88,35.76,79.88,79.88,79.88,79.88-35.76,79.88-79.88Z"/>
      <path class="cls-2" d="M125.85,215.78c0,18.21-14.76,32.97-32.97,32.97s-32.97-14.76-32.97-32.97,14.76-32.97,32.97-32.97,32.97,14.76,32.97,32.97ZM112.67,215.78c0-10.93-8.86-19.8-19.8-19.8s-19.8,8.86-19.8,19.8,8.86,19.8,19.8,19.8,19.8-8.86,19.8-19.8Z"/>
      <path class="cls-2" d="M328.51,268.59c0,44.12-35.76,79.88-79.88,79.88s-79.88-35.76-79.88-79.88,35.76-79.88,79.88-79.88,79.88,35.76,79.88,79.88ZM291.52,285.86c-1.42,4,1.41,7.56,4.07,8.29,3.22.88,6.87-.15,8.21-3.57,7.25-18.55,5.07-39.25-6.62-56.05-10.41-14.96-27.95-24.92-47.51-25.26-4.16-.07-7.39,2.2-7.51,6.25-.1,3.5,2.54,6.87,6.75,6.89,15.07.07,28.97,8.15,37,19.28,9.56,13.26,10.97,29.15,5.62,44.18Z"/>
      <circle class="cls-2" cx="92.87" cy="215.78" r="19.8"/>
      <path class="cls-2" d="M291.52,285.86c5.35-15.02,3.94-30.91-5.62-44.18-8.02-11.13-21.93-19.21-37-19.28-4.21-.02-6.85-3.39-6.75-6.89.12-4.06,3.35-6.33,7.51-6.25,19.56.35,37.1,10.3,47.51,25.26,11.69,16.8,13.87,37.5,6.62,56.05-1.34,3.42-4.99,4.45-8.21,3.57-2.66-.72-5.49-4.29-4.07-8.29Z"/>
    </g>
  </g>
</svg>